<mxfile host="app.diagrams.net" agent="Mozilla/5.0 (Windows NT 10.0; Win64; x64) AppleWebKit/537.36 (KHTML, like Gecko) Chrome/137.0.0.0 Safari/537.36" version="27.2.0">
  <diagram id="C5RBs43oDa-KdzZeNtuy" name="Page-1">
    <mxGraphModel dx="1426" dy="785" grid="1" gridSize="10" guides="1" tooltips="1" connect="1" arrows="1" fold="1" page="1" pageScale="1" pageWidth="827" pageHeight="1169" math="0" shadow="0">
      <root>
        <mxCell id="WIyWlLk6GJQsqaUBKTNV-0" />
        <mxCell id="WIyWlLk6GJQsqaUBKTNV-1" parent="WIyWlLk6GJQsqaUBKTNV-0" />
        <mxCell id="HCR3xOsh-9Ly21BH5_7W-2" value="" style="edgeStyle=orthogonalEdgeStyle;rounded=0;orthogonalLoop=1;jettySize=auto;html=1;" edge="1" parent="WIyWlLk6GJQsqaUBKTNV-1" source="HCR3xOsh-9Ly21BH5_7W-0" target="HCR3xOsh-9Ly21BH5_7W-1">
          <mxGeometry relative="1" as="geometry" />
        </mxCell>
        <mxCell id="HCR3xOsh-9Ly21BH5_7W-0" value="开始" style="strokeWidth=2;html=1;shape=mxgraph.flowchart.start_1;whiteSpace=wrap;" vertex="1" parent="WIyWlLk6GJQsqaUBKTNV-1">
          <mxGeometry x="330" y="20" width="100" height="60" as="geometry" />
        </mxCell>
        <mxCell id="HCR3xOsh-9Ly21BH5_7W-4" value="" style="edgeStyle=orthogonalEdgeStyle;rounded=0;orthogonalLoop=1;jettySize=auto;html=1;" edge="1" parent="WIyWlLk6GJQsqaUBKTNV-1" source="HCR3xOsh-9Ly21BH5_7W-1" target="HCR3xOsh-9Ly21BH5_7W-3">
          <mxGeometry relative="1" as="geometry" />
        </mxCell>
        <mxCell id="HCR3xOsh-9Ly21BH5_7W-1" value="根据日期获取文件名" style="whiteSpace=wrap;html=1;strokeWidth=2;" vertex="1" parent="WIyWlLk6GJQsqaUBKTNV-1">
          <mxGeometry x="320" y="140" width="120" height="60" as="geometry" />
        </mxCell>
        <mxCell id="HCR3xOsh-9Ly21BH5_7W-6" value="" style="edgeStyle=orthogonalEdgeStyle;rounded=0;orthogonalLoop=1;jettySize=auto;html=1;" edge="1" parent="WIyWlLk6GJQsqaUBKTNV-1" source="HCR3xOsh-9Ly21BH5_7W-3" target="HCR3xOsh-9Ly21BH5_7W-5">
          <mxGeometry relative="1" as="geometry" />
        </mxCell>
        <mxCell id="HCR3xOsh-9Ly21BH5_7W-7" value="Y" style="edgeLabel;html=1;align=center;verticalAlign=middle;resizable=0;points=[];" vertex="1" connectable="0" parent="HCR3xOsh-9Ly21BH5_7W-6">
          <mxGeometry x="-0.2542" relative="1" as="geometry">
            <mxPoint as="offset" />
          </mxGeometry>
        </mxCell>
        <mxCell id="HCR3xOsh-9Ly21BH5_7W-16" value="" style="edgeStyle=orthogonalEdgeStyle;rounded=0;orthogonalLoop=1;jettySize=auto;html=1;entryX=1;entryY=0.5;entryDx=0;entryDy=0;entryPerimeter=0;" edge="1" parent="WIyWlLk6GJQsqaUBKTNV-1" source="HCR3xOsh-9Ly21BH5_7W-3" target="HCR3xOsh-9Ly21BH5_7W-13">
          <mxGeometry relative="1" as="geometry">
            <mxPoint x="500" y="290" as="targetPoint" />
            <Array as="points">
              <mxPoint x="550" y="290" />
              <mxPoint x="550" y="764" />
            </Array>
          </mxGeometry>
        </mxCell>
        <mxCell id="HCR3xOsh-9Ly21BH5_7W-3" value="文件是否存在" style="rhombus;whiteSpace=wrap;html=1;strokeWidth=2;" vertex="1" parent="WIyWlLk6GJQsqaUBKTNV-1">
          <mxGeometry x="330" y="250" width="100" height="80" as="geometry" />
        </mxCell>
        <mxCell id="HCR3xOsh-9Ly21BH5_7W-9" value="" style="edgeStyle=orthogonalEdgeStyle;rounded=0;orthogonalLoop=1;jettySize=auto;html=1;" edge="1" parent="WIyWlLk6GJQsqaUBKTNV-1" source="HCR3xOsh-9Ly21BH5_7W-5" target="HCR3xOsh-9Ly21BH5_7W-8">
          <mxGeometry relative="1" as="geometry" />
        </mxCell>
        <mxCell id="HCR3xOsh-9Ly21BH5_7W-5" value="获取文件的MD5" style="whiteSpace=wrap;html=1;strokeWidth=2;" vertex="1" parent="WIyWlLk6GJQsqaUBKTNV-1">
          <mxGeometry x="320" y="378" width="120" height="60" as="geometry" />
        </mxCell>
        <mxCell id="HCR3xOsh-9Ly21BH5_7W-11" value="" style="edgeStyle=orthogonalEdgeStyle;rounded=0;orthogonalLoop=1;jettySize=auto;html=1;" edge="1" parent="WIyWlLk6GJQsqaUBKTNV-1" source="HCR3xOsh-9Ly21BH5_7W-8" target="HCR3xOsh-9Ly21BH5_7W-10">
          <mxGeometry relative="1" as="geometry" />
        </mxCell>
        <mxCell id="HCR3xOsh-9Ly21BH5_7W-12" value="N" style="edgeLabel;html=1;align=center;verticalAlign=middle;resizable=0;points=[];" vertex="1" connectable="0" parent="HCR3xOsh-9Ly21BH5_7W-11">
          <mxGeometry x="-0.1333" y="4" relative="1" as="geometry">
            <mxPoint as="offset" />
          </mxGeometry>
        </mxCell>
        <mxCell id="HCR3xOsh-9Ly21BH5_7W-18" value="" style="edgeStyle=orthogonalEdgeStyle;rounded=0;orthogonalLoop=1;jettySize=auto;html=1;" edge="1" parent="WIyWlLk6GJQsqaUBKTNV-1" source="HCR3xOsh-9Ly21BH5_7W-8">
          <mxGeometry relative="1" as="geometry">
            <mxPoint x="550" y="526" as="targetPoint" />
          </mxGeometry>
        </mxCell>
        <mxCell id="HCR3xOsh-9Ly21BH5_7W-19" value="Y" style="edgeLabel;html=1;align=center;verticalAlign=middle;resizable=0;points=[];" vertex="1" connectable="0" parent="HCR3xOsh-9Ly21BH5_7W-18">
          <mxGeometry x="0.2874" y="-3" relative="1" as="geometry">
            <mxPoint as="offset" />
          </mxGeometry>
        </mxCell>
        <mxCell id="HCR3xOsh-9Ly21BH5_7W-8" value="是否和redis缓存中md5值一致" style="rhombus;whiteSpace=wrap;html=1;strokeWidth=2;" vertex="1" parent="WIyWlLk6GJQsqaUBKTNV-1">
          <mxGeometry x="305" y="481" width="150" height="90" as="geometry" />
        </mxCell>
        <mxCell id="HCR3xOsh-9Ly21BH5_7W-14" value="" style="edgeStyle=orthogonalEdgeStyle;rounded=0;orthogonalLoop=1;jettySize=auto;html=1;" edge="1" parent="WIyWlLk6GJQsqaUBKTNV-1" source="HCR3xOsh-9Ly21BH5_7W-10" target="HCR3xOsh-9Ly21BH5_7W-13">
          <mxGeometry relative="1" as="geometry" />
        </mxCell>
        <mxCell id="HCR3xOsh-9Ly21BH5_7W-10" value="重新解析更新ODS层数据" style="whiteSpace=wrap;html=1;strokeWidth=2;" vertex="1" parent="WIyWlLk6GJQsqaUBKTNV-1">
          <mxGeometry x="320" y="613" width="120" height="60" as="geometry" />
        </mxCell>
        <mxCell id="HCR3xOsh-9Ly21BH5_7W-13" value="结束" style="strokeWidth=2;html=1;shape=mxgraph.flowchart.terminator;whiteSpace=wrap;" vertex="1" parent="WIyWlLk6GJQsqaUBKTNV-1">
          <mxGeometry x="330" y="734" width="100" height="60" as="geometry" />
        </mxCell>
      </root>
    </mxGraphModel>
  </diagram>
</mxfile>
